<svg version="1" xmlns="http://www.w3.org/2000/svg" width="682.667" height="682.667" viewBox="0 0 512.000000 512.000000"><path d="M226 31v15h-60l-.1 12.7c-.1 7.1 0 13.8.1 15.1l.2 2.3-15.4-.3-15.3-.3.2 30.3.2 30.3-14.5-.2c-8 0-14.7.1-15 .3-.2.3-.4 13.8-.4 30.2l-.1 29.6-14.2-.1c-7.8 0-14.6-.4-15.2-.9-.7-.6-.9 4.5-.8 15.1L76 226H46v60h15.1c15 0 15 0 14.9 2.2-.1 1.3-.2 8-.1 15L76 316h30v44.6c0 24.6.2 44.9.4 45.1.2.3 7 .4 15 .4l14.5-.2v14.7c0 8 .2 14.8.4 15.1.3.2 6.9.5 14.8.6l14.4.2V466H196.2l-.2 2.7c-.1 1.6-.2 8.3-.1 15l.1 12.3h60c47.3 0 60-.3 60.1-1.3v-15L316 466h30l.1-5.8V436h5c3.7 0 4.8.3 4.3 1.3-.6.9-.4.9.7-.1.8-.8 4.5-1.2 10.6-1.2h9.3v-30h30v-89.9l15.9.2c10.5.1 15.7-.1 15.1-.8-.5-.6-.9-7.4-.9-15.3l-.2-14.2H466v-60h-29.9v-14.2c0-7.8.4-14.7.9-15.3.6-.7-4.1-.9-15.1-.8l-15.9.2.1-29.6c0-16.2-.2-29.7-.3-29.9-.2-.2-7-.4-15.1-.5l-14.7-.1V76l-6.7-.1c-3.8 0-10.5 0-15.1.1l-8.3.1.1-13.8c.1-7.6.1-14.4 0-15.1 0-.9-6.7-1.2-30-1.2h-30V16h-60v15zm90 120v15h30v90h-60v30h-60v-30h-60v-90h30v-30h120v15zM106 256v30H76v-60h30v30zm330 0v30h-30v-60h30v30z"/><path d="M196 211v15h30v-30h-30v15zM286 211v15h30v-30h-30v15zM446.5 296c-.3.6.1.7.9.4 1.8-.7 2.1-1.4.7-1.4-.6 0-1.3.4-1.6 1z"/></svg>